<mxfile host="app.diagrams.net" modified="2023-02-22T05:59:46.092Z" agent="5.0 (Macintosh; Intel Mac OS X 10_15_7) AppleWebKit/605.1.15 (KHTML, like Gecko) Version/16.3 Safari/605.1.15" etag="g-ZF8qdkj2XAOl-SvJha" version="20.8.22" type="github">
  <diagram name="Page-1" id="9Y9F-NSMw4yCTLj-Y9Ts">
    <mxGraphModel dx="881" dy="848" grid="1" gridSize="10" guides="1" tooltips="1" connect="1" arrows="1" fold="1" page="1" pageScale="1" pageWidth="850" pageHeight="1100" math="0" shadow="0">
      <root>
        <mxCell id="0" />
        <mxCell id="1" parent="0" />
        <mxCell id="m6dzhK-xZOBfA6yYonKu-1" value="End" style="ellipse;whiteSpace=wrap;html=1;aspect=fixed;fillColor=#f8cecc;strokeColor=#b85450;fontStyle=1;strokeWidth=2;" parent="1" vertex="1">
          <mxGeometry x="705" y="860" width="70" height="70" as="geometry" />
        </mxCell>
        <mxCell id="m6dzhK-xZOBfA6yYonKu-2" style="edgeStyle=orthogonalEdgeStyle;rounded=0;orthogonalLoop=1;jettySize=auto;html=1;entryX=0.5;entryY=0;entryDx=0;entryDy=0;fontColor=#FFFFFF;" parent="1" source="m6dzhK-xZOBfA6yYonKu-3" target="m6dzhK-xZOBfA6yYonKu-5" edge="1">
          <mxGeometry relative="1" as="geometry" />
        </mxCell>
        <mxCell id="m6dzhK-xZOBfA6yYonKu-3" value="Start" style="ellipse;whiteSpace=wrap;html=1;aspect=fixed;fillColor=#d5e8d4;strokeColor=#82b366;fontStyle=1;strokeWidth=2;" parent="1" vertex="1">
          <mxGeometry x="115" y="20" width="70" height="70" as="geometry" />
        </mxCell>
        <mxCell id="m6dzhK-xZOBfA6yYonKu-17" value="" style="edgeStyle=orthogonalEdgeStyle;rounded=0;orthogonalLoop=1;jettySize=auto;html=1;" parent="1" source="m6dzhK-xZOBfA6yYonKu-4" target="m6dzhK-xZOBfA6yYonKu-8" edge="1">
          <mxGeometry relative="1" as="geometry" />
        </mxCell>
        <mxCell id="m6dzhK-xZOBfA6yYonKu-21" value="" style="edgeStyle=orthogonalEdgeStyle;rounded=0;orthogonalLoop=1;jettySize=auto;html=1;" parent="1" source="m6dzhK-xZOBfA6yYonKu-4" target="m6dzhK-xZOBfA6yYonKu-19" edge="1">
          <mxGeometry relative="1" as="geometry" />
        </mxCell>
        <mxCell id="m6dzhK-xZOBfA6yYonKu-4" value="Client&amp;nbsp;memiliki &lt;br&gt;kuota&amp;nbsp;paket&lt;br&gt;latihan?" style="rhombus;whiteSpace=wrap;html=1;strokeWidth=1;fillColor=#dae8fc;strokeColor=#6c8ebf;" parent="1" vertex="1">
          <mxGeometry x="90" y="230" width="120" height="110" as="geometry" />
        </mxCell>
        <mxCell id="m6dzhK-xZOBfA6yYonKu-12" value="" style="edgeStyle=orthogonalEdgeStyle;rounded=0;orthogonalLoop=1;jettySize=auto;html=1;" parent="1" source="m6dzhK-xZOBfA6yYonKu-5" target="m6dzhK-xZOBfA6yYonKu-4" edge="1">
          <mxGeometry relative="1" as="geometry" />
        </mxCell>
        <mxCell id="m6dzhK-xZOBfA6yYonKu-5" value="Client membuka tab&lt;br&gt;jadwal latihan" style="rounded=1;whiteSpace=wrap;html=1;fontSize=12;glass=0;strokeWidth=1;shadow=0;" parent="1" vertex="1">
          <mxGeometry x="50" y="130" width="200" height="70" as="geometry" />
        </mxCell>
        <mxCell id="m6dzhK-xZOBfA6yYonKu-6" value="&lt;font color=&quot;#000000&quot;&gt;Ya&lt;/font&gt;" style="text;html=1;strokeColor=none;fillColor=none;align=center;verticalAlign=middle;whiteSpace=wrap;rounded=0;fontColor=#FFFFFF;" parent="1" vertex="1">
          <mxGeometry x="115" y="340" width="20" height="20" as="geometry" />
        </mxCell>
        <mxCell id="m6dzhK-xZOBfA6yYonKu-7" value="&lt;font color=&quot;#000000&quot;&gt;Tidak&lt;/font&gt;" style="text;html=1;strokeColor=none;fillColor=none;align=center;verticalAlign=middle;whiteSpace=wrap;rounded=0;fontColor=#FFFFFF;" parent="1" vertex="1">
          <mxGeometry x="217.5" y="250" width="20" height="20" as="geometry" />
        </mxCell>
        <mxCell id="m6dzhK-xZOBfA6yYonKu-18" value="" style="edgeStyle=orthogonalEdgeStyle;rounded=0;orthogonalLoop=1;jettySize=auto;html=1;" parent="1" source="m6dzhK-xZOBfA6yYonKu-8" target="m6dzhK-xZOBfA6yYonKu-9" edge="1">
          <mxGeometry relative="1" as="geometry" />
        </mxCell>
        <mxCell id="m6dzhK-xZOBfA6yYonKu-8" value="pilihan slot jadwal latihan" style="shape=parallelogram;perimeter=parallelogramPerimeter;whiteSpace=wrap;html=1;fixedSize=1;strokeWidth=1;fillColor=#fff2cc;strokeColor=#d6b656;" parent="1" vertex="1">
          <mxGeometry x="85" y="390" width="130" height="50" as="geometry" />
        </mxCell>
        <mxCell id="m6dzhK-xZOBfA6yYonKu-30" value="" style="edgeStyle=orthogonalEdgeStyle;rounded=0;orthogonalLoop=1;jettySize=auto;html=1;" parent="1" source="m6dzhK-xZOBfA6yYonKu-9" target="m6dzhK-xZOBfA6yYonKu-29" edge="1">
          <mxGeometry relative="1" as="geometry" />
        </mxCell>
        <mxCell id="m6dzhK-xZOBfA6yYonKu-9" value="Cliet memilih jadwal yang masih tersedia" style="rounded=1;whiteSpace=wrap;html=1;fontSize=12;glass=0;strokeWidth=1;shadow=0;" parent="1" vertex="1">
          <mxGeometry x="90" y="490" width="120" height="70" as="geometry" />
        </mxCell>
        <mxCell id="m6dzhK-xZOBfA6yYonKu-39" value="" style="edgeStyle=orthogonalEdgeStyle;rounded=0;orthogonalLoop=1;jettySize=auto;html=1;" parent="1" source="m6dzhK-xZOBfA6yYonKu-10" target="m6dzhK-xZOBfA6yYonKu-38" edge="1">
          <mxGeometry relative="1" as="geometry" />
        </mxCell>
        <mxCell id="m6dzhK-xZOBfA6yYonKu-10" value="Client dapat mendatangi sesi latihan" style="rounded=1;whiteSpace=wrap;html=1;fontSize=12;glass=0;strokeWidth=1;shadow=0;" parent="1" vertex="1">
          <mxGeometry x="90" y="860" width="120" height="70" as="geometry" />
        </mxCell>
        <mxCell id="HNvTmvBGmo5yIKNjzHqX-5" value="" style="edgeStyle=orthogonalEdgeStyle;rounded=0;orthogonalLoop=1;jettySize=auto;html=1;" edge="1" parent="1" source="m6dzhK-xZOBfA6yYonKu-14" target="HNvTmvBGmo5yIKNjzHqX-1">
          <mxGeometry relative="1" as="geometry" />
        </mxCell>
        <mxCell id="m6dzhK-xZOBfA6yYonKu-14" value="Client memilih paket latihan" style="rounded=1;whiteSpace=wrap;html=1;fontSize=12;glass=0;strokeWidth=1;shadow=0;" parent="1" vertex="1">
          <mxGeometry x="500" y="250" width="120" height="70" as="geometry" />
        </mxCell>
        <mxCell id="m6dzhK-xZOBfA6yYonKu-22" value="" style="edgeStyle=orthogonalEdgeStyle;rounded=0;orthogonalLoop=1;jettySize=auto;html=1;" parent="1" source="m6dzhK-xZOBfA6yYonKu-19" target="m6dzhK-xZOBfA6yYonKu-14" edge="1">
          <mxGeometry relative="1" as="geometry" />
        </mxCell>
        <mxCell id="m6dzhK-xZOBfA6yYonKu-19" value="instruksi untuk&lt;br&gt;membeli paket latihan" style="shape=parallelogram;perimeter=parallelogramPerimeter;whiteSpace=wrap;html=1;fixedSize=1;strokeWidth=1;fillColor=#fff2cc;strokeColor=#d6b656;" parent="1" vertex="1">
          <mxGeometry x="290" y="260" width="160" height="50" as="geometry" />
        </mxCell>
        <mxCell id="m6dzhK-xZOBfA6yYonKu-33" value="" style="edgeStyle=orthogonalEdgeStyle;rounded=0;orthogonalLoop=1;jettySize=auto;html=1;" parent="1" source="m6dzhK-xZOBfA6yYonKu-29" target="m6dzhK-xZOBfA6yYonKu-31" edge="1">
          <mxGeometry relative="1" as="geometry" />
        </mxCell>
        <mxCell id="m6dzhK-xZOBfA6yYonKu-29" value="status jadwal&amp;nbsp; menunggu konfirmasi staff" style="shape=parallelogram;perimeter=parallelogramPerimeter;whiteSpace=wrap;html=1;fixedSize=1;strokeWidth=1;fillColor=#fff2cc;strokeColor=#d6b656;" parent="1" vertex="1">
          <mxGeometry x="62.5" y="600" width="175" height="50" as="geometry" />
        </mxCell>
        <mxCell id="m6dzhK-xZOBfA6yYonKu-34" style="edgeStyle=orthogonalEdgeStyle;rounded=0;orthogonalLoop=1;jettySize=auto;html=1;entryX=1;entryY=0.5;entryDx=0;entryDy=0;" parent="1" source="m6dzhK-xZOBfA6yYonKu-31" target="m6dzhK-xZOBfA6yYonKu-9" edge="1">
          <mxGeometry relative="1" as="geometry">
            <Array as="points">
              <mxPoint x="300" y="725" />
              <mxPoint x="300" y="525" />
            </Array>
          </mxGeometry>
        </mxCell>
        <mxCell id="m6dzhK-xZOBfA6yYonKu-31" value="jadwal&lt;br&gt;disetujui?" style="rhombus;whiteSpace=wrap;html=1;strokeWidth=1;fillColor=#dae8fc;strokeColor=#6c8ebf;" parent="1" vertex="1">
          <mxGeometry x="90" y="700" width="120" height="110" as="geometry" />
        </mxCell>
        <mxCell id="m6dzhK-xZOBfA6yYonKu-35" value="&lt;font color=&quot;#000000&quot;&gt;Tidak&lt;/font&gt;" style="text;html=1;strokeColor=none;fillColor=none;align=center;verticalAlign=middle;whiteSpace=wrap;rounded=0;fontColor=#FFFFFF;" parent="1" vertex="1">
          <mxGeometry x="230" y="740" width="20" height="20" as="geometry" />
        </mxCell>
        <mxCell id="m6dzhK-xZOBfA6yYonKu-36" value="" style="edgeStyle=orthogonalEdgeStyle;rounded=0;orthogonalLoop=1;jettySize=auto;html=1;" parent="1" edge="1">
          <mxGeometry relative="1" as="geometry">
            <mxPoint x="150" y="810" as="sourcePoint" />
            <mxPoint x="150" y="860" as="targetPoint" />
          </mxGeometry>
        </mxCell>
        <mxCell id="m6dzhK-xZOBfA6yYonKu-37" value="&lt;font color=&quot;#000000&quot;&gt;Ya&lt;/font&gt;" style="text;html=1;strokeColor=none;fillColor=none;align=center;verticalAlign=middle;whiteSpace=wrap;rounded=0;fontColor=#FFFFFF;" parent="1" vertex="1">
          <mxGeometry x="115" y="810" width="20" height="20" as="geometry" />
        </mxCell>
        <mxCell id="m6dzhK-xZOBfA6yYonKu-45" value="" style="edgeStyle=orthogonalEdgeStyle;rounded=0;orthogonalLoop=1;jettySize=auto;html=1;" parent="1" source="m6dzhK-xZOBfA6yYonKu-38" target="m6dzhK-xZOBfA6yYonKu-43" edge="1">
          <mxGeometry relative="1" as="geometry" />
        </mxCell>
        <mxCell id="S5ORqtr5PDiU_7l16w2N-1" style="edgeStyle=orthogonalEdgeStyle;rounded=0;orthogonalLoop=1;jettySize=auto;html=1;entryX=1;entryY=0.5;entryDx=0;entryDy=0;" parent="1" source="m6dzhK-xZOBfA6yYonKu-38" target="m6dzhK-xZOBfA6yYonKu-9" edge="1">
          <mxGeometry relative="1" as="geometry">
            <Array as="points">
              <mxPoint x="380" y="525" />
            </Array>
          </mxGeometry>
        </mxCell>
        <mxCell id="m6dzhK-xZOBfA6yYonKu-38" value="client datang?" style="rhombus;whiteSpace=wrap;html=1;strokeWidth=1;fillColor=#dae8fc;strokeColor=#6c8ebf;" parent="1" vertex="1">
          <mxGeometry x="320" y="840" width="120" height="110" as="geometry" />
        </mxCell>
        <mxCell id="m6dzhK-xZOBfA6yYonKu-41" value="&lt;font color=&quot;#000000&quot;&gt;Tidak&lt;/font&gt;" style="text;html=1;strokeColor=none;fillColor=none;align=center;verticalAlign=middle;whiteSpace=wrap;rounded=0;fontColor=#FFFFFF;" parent="1" vertex="1">
          <mxGeometry x="340" y="810" width="20" height="20" as="geometry" />
        </mxCell>
        <mxCell id="m6dzhK-xZOBfA6yYonKu-46" value="" style="edgeStyle=orthogonalEdgeStyle;rounded=0;orthogonalLoop=1;jettySize=auto;html=1;" parent="1" source="m6dzhK-xZOBfA6yYonKu-43" target="m6dzhK-xZOBfA6yYonKu-1" edge="1">
          <mxGeometry relative="1" as="geometry" />
        </mxCell>
        <mxCell id="m6dzhK-xZOBfA6yYonKu-43" value="Latihan dilaksanakan" style="rounded=1;whiteSpace=wrap;html=1;fontSize=12;glass=0;strokeWidth=1;shadow=0;" parent="1" vertex="1">
          <mxGeometry x="510" y="860" width="120" height="70" as="geometry" />
        </mxCell>
        <mxCell id="m6dzhK-xZOBfA6yYonKu-44" value="&lt;font color=&quot;#000000&quot;&gt;Ya&lt;/font&gt;" style="text;html=1;strokeColor=none;fillColor=none;align=center;verticalAlign=middle;whiteSpace=wrap;rounded=0;fontColor=#FFFFFF;" parent="1" vertex="1">
          <mxGeometry x="300" y="860" width="20" height="20" as="geometry" />
        </mxCell>
        <mxCell id="HNvTmvBGmo5yIKNjzHqX-4" value="" style="edgeStyle=orthogonalEdgeStyle;rounded=0;orthogonalLoop=1;jettySize=auto;html=1;" edge="1" parent="1" source="HNvTmvBGmo5yIKNjzHqX-1" target="HNvTmvBGmo5yIKNjzHqX-3">
          <mxGeometry relative="1" as="geometry" />
        </mxCell>
        <mxCell id="HNvTmvBGmo5yIKNjzHqX-1" value="client melakukan&lt;br&gt;pembayaran" style="ellipse;whiteSpace=wrap;html=1;fillColor=#d5e8d4;strokeColor=#82b366;strokeWidth=2;fontStyle=1" vertex="1" parent="1">
          <mxGeometry x="680" y="245" width="120" height="80" as="geometry" />
        </mxCell>
        <mxCell id="HNvTmvBGmo5yIKNjzHqX-6" style="edgeStyle=orthogonalEdgeStyle;rounded=0;orthogonalLoop=1;jettySize=auto;html=1;entryX=0.5;entryY=0;entryDx=0;entryDy=0;" edge="1" parent="1" source="HNvTmvBGmo5yIKNjzHqX-3" target="m6dzhK-xZOBfA6yYonKu-1">
          <mxGeometry relative="1" as="geometry" />
        </mxCell>
        <mxCell id="HNvTmvBGmo5yIKNjzHqX-7" style="edgeStyle=orthogonalEdgeStyle;rounded=0;orthogonalLoop=1;jettySize=auto;html=1;entryX=1;entryY=0.5;entryDx=0;entryDy=0;" edge="1" parent="1" source="HNvTmvBGmo5yIKNjzHqX-3" target="m6dzhK-xZOBfA6yYonKu-8">
          <mxGeometry relative="1" as="geometry" />
        </mxCell>
        <mxCell id="HNvTmvBGmo5yIKNjzHqX-3" value="pembayaran&lt;br&gt;berhasil" style="rhombus;whiteSpace=wrap;html=1;strokeWidth=1;fillColor=#dae8fc;strokeColor=#6c8ebf;" vertex="1" parent="1">
          <mxGeometry x="680" y="360" width="120" height="110" as="geometry" />
        </mxCell>
        <mxCell id="HNvTmvBGmo5yIKNjzHqX-9" value="&lt;font color=&quot;#000000&quot;&gt;Tidak&lt;/font&gt;" style="text;html=1;strokeColor=none;fillColor=none;align=center;verticalAlign=middle;whiteSpace=wrap;rounded=0;fontColor=#FFFFFF;" vertex="1" parent="1">
          <mxGeometry x="700" y="470" width="20" height="20" as="geometry" />
        </mxCell>
        <mxCell id="HNvTmvBGmo5yIKNjzHqX-10" value="&lt;font color=&quot;#000000&quot;&gt;Ya&lt;/font&gt;" style="text;html=1;strokeColor=none;fillColor=none;align=center;verticalAlign=middle;whiteSpace=wrap;rounded=0;fontColor=#FFFFFF;" vertex="1" parent="1">
          <mxGeometry x="650" y="380" width="20" height="20" as="geometry" />
        </mxCell>
      </root>
    </mxGraphModel>
  </diagram>
</mxfile>
